<mxfile host="65bd71144e">
    <diagram id="yziZSB1KoI2GvSPsbhYu" name="Page-1">
        <mxGraphModel dx="990" dy="575" grid="1" gridSize="10" guides="1" tooltips="1" connect="0" arrows="1" fold="1" page="1" pageScale="1" pageWidth="827" pageHeight="1169" math="0" shadow="0">
            <root>
                <mxCell id="0"/>
                <mxCell id="1" parent="0"/>
                <mxCell id="11" value="PC端" style="ellipse;whiteSpace=wrap;html=1;aspect=fixed;fontSize=63;" parent="1" vertex="1">
                    <mxGeometry x="520" y="350" width="420" height="420" as="geometry"/>
                </mxCell>
                <mxCell id="19" value="" style="edgeStyle=none;html=1;entryX=0.001;entryY=0.475;entryDx=0;entryDy=0;entryPerimeter=0;exitX=0.999;exitY=0.502;exitDx=0;exitDy=0;exitPerimeter=0;" edge="1" parent="1" source="12" target="14">
                    <mxGeometry relative="1" as="geometry">
                        <mxPoint x="1380" y="430" as="targetPoint"/>
                    </mxGeometry>
                </mxCell>
                <mxCell id="12" value="UDP通信" style="shape=singleArrow;whiteSpace=wrap;html=1;arrowWidth=0.4;arrowSize=0.4;fontSize=63;" parent="1" vertex="1">
                    <mxGeometry x="940" y="475" width="420" height="170" as="geometry"/>
                </mxCell>
                <mxCell id="14" value="小车Ⅰ" style="whiteSpace=wrap;html=1;fontSize=63;" parent="1" vertex="1">
                    <mxGeometry x="1420" y="250" width="390" height="190" as="geometry"/>
                </mxCell>
                <mxCell id="16" value="小车Ⅱ" style="whiteSpace=wrap;html=1;fontSize=63;rotation=0;" parent="1" vertex="1">
                    <mxGeometry x="1420" y="670" width="390" height="200" as="geometry"/>
                </mxCell>
                <mxCell id="21" value="" style="edgeStyle=none;html=1;entryX=-0.001;entryY=0.511;entryDx=0;entryDy=0;entryPerimeter=0;exitX=1;exitY=0.5;exitDx=0;exitDy=0;exitPerimeter=0;" edge="1" parent="1" source="12" target="16">
                    <mxGeometry relative="1" as="geometry">
                        <mxPoint x="1460" y="540" as="sourcePoint"/>
                        <mxPoint x="1520.81" y="319.9100000000001" as="targetPoint"/>
                    </mxGeometry>
                </mxCell>
            </root>
        </mxGraphModel>
    </diagram>
</mxfile>